<svg width="56" height="11" viewBox="0 0 56 11" fill="none" xmlns="http://www.w3.org/2000/svg">
<path d="M0.660511 10V1.27273H2.76989V4.77557H6.20881V1.27273H8.31392V10H6.20881V6.4929H2.76989V10H0.660511ZM12.6967 10.1236C12.0121 10.1236 11.4212 9.98864 10.924 9.71875C10.4297 9.44602 10.049 9.05824 9.78196 8.5554C9.51776 8.04972 9.38565 7.44886 9.38565 6.75284C9.38565 6.0767 9.51918 5.4858 9.78622 4.98011C10.0533 4.47159 10.4297 4.0767 10.9155 3.79545C11.4013 3.51136 11.9737 3.36932 12.6328 3.36932C13.0987 3.36932 13.5249 3.44176 13.9112 3.58665C14.2976 3.73153 14.6314 3.94602 14.9126 4.23011C15.1939 4.5142 15.4126 4.86506 15.5689 5.28267C15.7251 5.69744 15.8033 6.1733 15.8033 6.71023V7.23011H10.1143V6.01989H13.8643C13.8615 5.7983 13.8089 5.60085 13.7067 5.42756C13.6044 5.25426 13.4638 5.11932 13.2848 5.02273C13.1087 4.9233 12.9055 4.87358 12.6754 4.87358C12.4425 4.87358 12.2337 4.92614 12.049 5.03125C11.8643 5.13352 11.718 5.27415 11.6101 5.45312C11.5021 5.62926 11.4453 5.82955 11.4396 6.05398V7.28551C11.4396 7.55256 11.4922 7.78693 11.5973 7.98864C11.7024 8.1875 11.8516 8.34233 12.0447 8.45312C12.2379 8.56392 12.468 8.61932 12.7351 8.61932C12.9197 8.61932 13.0874 8.59375 13.2379 8.54261C13.3885 8.49148 13.5178 8.41619 13.6257 8.31676C13.7337 8.21733 13.8146 8.09517 13.8686 7.95028L15.782 8.00568C15.7024 8.43466 15.5277 8.80824 15.2578 9.12642C14.9908 9.44176 14.6399 9.6875 14.2053 9.86364C13.7706 10.0369 13.2678 10.1236 12.6967 10.1236ZM16.8675 10V3.45455H18.9513V10H16.8675ZM17.9116 2.69176C17.619 2.69176 17.3675 2.59517 17.1573 2.40199C16.9471 2.20597 16.842 1.97017 16.842 1.6946C16.842 1.42187 16.9471 1.18892 17.1573 0.995739C17.3675 0.799716 17.619 0.701704 17.9116 0.701704C18.207 0.701704 18.4585 0.799716 18.6658 0.995739C18.8761 1.18892 18.9812 1.42187 18.9812 1.6946C18.9812 1.97017 18.8761 2.20597 18.6658 2.40199C18.4585 2.59517 18.207 2.69176 17.9116 2.69176ZM22.3615 6.26705V10H20.2777V3.45455H22.2592V4.65625H22.3317C22.4766 4.25568 22.7237 3.94176 23.0732 3.71449C23.4226 3.48438 23.8388 3.36932 24.3217 3.36932C24.782 3.36932 25.1811 3.47301 25.5192 3.6804C25.8601 3.88494 26.1243 4.17187 26.3118 4.54119C26.5021 4.90767 26.5959 5.33665 26.593 5.82812V10H24.5092V6.23722C24.5121 5.87358 24.4197 5.58949 24.2322 5.38494C24.0476 5.1804 23.7905 5.07812 23.4609 5.07812C23.2422 5.07812 23.049 5.12642 22.8814 5.22301C22.7166 5.31676 22.5888 5.4517 22.4979 5.62784C22.4098 5.80398 22.3643 6.01705 22.3615 6.26705ZM30.4613 10V1.27273H32.5707V4.77557H36.0096V1.27273H38.1147V10H36.0096V6.4929H32.5707V10H30.4613ZM43.1325 3.45455V4.98864H39.0032V3.45455H43.1325ZM39.8683 1.88636H41.9521V7.94176C41.9521 8.0696 41.9719 8.1733 42.0117 8.25284C42.0543 8.32955 42.1154 8.38494 42.195 8.41903C42.2745 8.45028 42.3697 8.46591 42.4805 8.46591C42.56 8.46591 42.6438 8.45881 42.7319 8.4446C42.8228 8.42756 42.891 8.41335 42.9364 8.40199L43.2518 9.90625C43.1523 9.93466 43.0117 9.97017 42.8299 10.0128C42.6509 10.0554 42.4364 10.0824 42.1864 10.0938C41.6978 10.1165 41.2788 10.0597 40.9293 9.9233C40.5827 9.78409 40.3171 9.56818 40.1325 9.27557C39.9506 8.98295 39.8626 8.61506 39.8683 8.17188V1.88636ZM47.185 10.1236C46.5004 10.1236 45.9094 9.98864 45.4123 9.71875C44.918 9.44602 44.5373 9.05824 44.2702 8.5554C44.006 8.04972 43.8739 7.44886 43.8739 6.75284C43.8739 6.0767 44.0075 5.4858 44.2745 4.98011C44.5415 4.47159 44.918 4.0767 45.4038 3.79545C45.8896 3.51136 46.462 3.36932 47.1211 3.36932C47.587 3.36932 48.0131 3.44176 48.3995 3.58665C48.7859 3.73153 49.1197 3.94602 49.4009 4.23011C49.6822 4.5142 49.9009 4.86506 50.0572 5.28267C50.2134 5.69744 50.2915 6.1733 50.2915 6.71023V7.23011H44.6026V6.01989H48.3526C48.3498 5.7983 48.2972 5.60085 48.195 5.42756C48.0927 5.25426 47.9521 5.11932 47.7731 5.02273C47.5969 4.9233 47.3938 4.87358 47.1637 4.87358C46.9308 4.87358 46.7219 4.92614 46.5373 5.03125C46.3526 5.13352 46.2063 5.27415 46.0984 5.45312C45.9904 5.62926 45.9336 5.82955 45.9279 6.05398V7.28551C45.9279 7.55256 45.9805 7.78693 46.0856 7.98864C46.1907 8.1875 46.3398 8.34233 46.533 8.45312C46.7262 8.56392 46.9563 8.61932 47.2234 8.61932C47.408 8.61932 47.5756 8.59375 47.7262 8.54261C47.8768 8.49148 48.006 8.41619 48.114 8.31676C48.2219 8.21733 48.3029 8.09517 48.3569 7.95028L50.2702 8.00568C50.1907 8.43466 50.016 8.80824 49.7461 9.12642C49.479 9.44176 49.1282 9.6875 48.6935 9.86364C48.2589 10.0369 47.756 10.1236 47.185 10.1236ZM55.0504 3.45455V4.98864H50.9212V3.45455H55.0504ZM51.7862 1.88636H53.87V7.94176C53.87 8.0696 53.8899 8.1733 53.9297 8.25284C53.9723 8.32955 54.0334 8.38494 54.1129 8.41903C54.1925 8.45028 54.2876 8.46591 54.3984 8.46591C54.478 8.46591 54.5618 8.45881 54.6499 8.4446C54.7408 8.42756 54.8089 8.41335 54.8544 8.40199L55.1697 9.90625C55.0703 9.93466 54.9297 9.97017 54.7479 10.0128C54.5689 10.0554 54.3544 10.0824 54.1044 10.0938C53.6158 10.1165 53.1967 10.0597 52.8473 9.9233C52.5007 9.78409 52.2351 9.56818 52.0504 9.27557C51.8686 8.98295 51.7805 8.61506 51.7862 8.17188V1.88636Z" fill="white"/>
</svg>
